<svg xmlns="http://www.w3.org/2000/svg" id="list" viewBox="0 0 1242.2079 1540" width="64" height="64" style="fill: rgb(204, 204, 204);"><path d="M92.208 200h100q21 0 35.5 14.5t14.5 35.5v100q0 21-14.5 35.5t-35.5 14.5h-100q-21 0-35.5-14.5t-14.5-35.5V250q0-21 14.5-35.5t35.5-14.5zm300 0h800q21 0 35.5 14.5t14.5 35.5v100q0 21-14.5 35.5t-35.5 14.5h-800q-21 0-35.5-14.5t-14.5-35.5V250q0-21 14.5-35.5t35.5-14.5zm-300 300h100q21 0 35.5 14.5t14.5 35.5v100q0 21-14.5 35.5t-35.5 14.5h-100q-21 0-35.5-14.5t-14.5-35.5V550q0-21 14.5-35.5t35.5-14.5zm300 0h800q21 0 35.5 14.5t14.5 35.5v100q0 21-14.5 35.5t-35.5 14.5h-800q-21 0-35.5-14.5t-14.5-35.5V550q0-21 14.5-35.5t35.5-14.5zm-300 300h100q21 0 35.5 14.5t14.5 35.5v100q0 21-14.5 35.5t-35.5 14.5h-100q-21 0-35.5-14.5t-14.5-35.5V850q0-21 14.5-35.5t35.5-14.5zm300 0h800q21 0 35.5 14.5t14.5 35.5v100q0 21-14.5 35.5t-35.5 14.5h-800q-21 0-35.5-14.5t-14.5-35.5V850q0-21 14.5-35.5t35.5-14.5zm-300 300h100q21 0 35.5 14.5t14.5 35.5v100q0 21-14.5 35.5t-35.5 14.5h-100q-21 0-35.5-14.5t-14.5-35.5v-100q0-21 14.5-35.5t35.5-14.5zm300 0h800q21 0 35.5 14.5t14.5 35.5v100q0 21-14.5 35.5t-35.5 14.5h-800q-21 0-35.5-14.5t-14.5-35.5v-100q0-21 14.5-35.5t35.5-14.5z"/></svg>